<?xml version="1.0" encoding="UTF-8"?>
<svg id="Layer_1" xmlns="http://www.w3.org/2000/svg" version="1.1" viewBox="0 0 416.4 203.6">
  <!-- Generator: Adobe Illustrator 29.0.1, SVG Export Plug-In . SVG Version: 2.1.0 Build 192)  -->
  <defs>
    <style>
      .st0 {
        fill: none;
      }

      .st1 {
        fill: #da2128;
      }
    </style>
  </defs>
  <g>
    <path class="st1" d="M377.8,111.7c0-.2,0-.4,0-.6,3.6-.7,6.9-1.9,10-3.5h0s0,0,0,0c.5-.3,1-.6,1.5-.9,0,0,0,0,0,0,.1,0,.3-.2.4-.3,0,0,0,0,0,0,.2,0,.3-.2.5-.3,0,0,0,0,0,0,.3-.2.6-.4,1-.6,0,0,0,0,0,0,.1,0,.3-.2.4-.3,0,0,0,0,0,0,.1,0,.3-.2.4-.3,0,0,0,0,0,0,.3-.2.6-.5.9-.7,0,0,0,0,0,0,.1-.1.2-.2.4-.3,0,0,0,0,0,0,.1,0,.2-.2.4-.3,0,0,0,0,0,0,.3-.2.6-.5.9-.8,0,0,0,0,0,0,.1-.1.2-.2.4-.3,0,0,0,0,.1,0,.1,0,.2-.2.3-.3,0,0,0,0,.1,0,.1-.1.2-.2.3-.3,0,0,0,0,0,0,.1-.1.3-.3.4-.4,0,0,0,0,0,0,.1-.1.2-.2.3-.3,0,0,0,0,.1-.1,0,0,.2-.2.3-.3,0,0,0,0,.1-.1,0-.1.2-.2.3-.3,0,0,0,0,0,0,.1-.1.2-.3.4-.4,0,0,0,0,0,0,.1-.1.2-.3.3-.4,0,0,0,0,.1-.1,0,0,.2-.2.2-.3,0,0,0,0,.1-.1,0-.1.2-.2.2-.3,0,0,0,0,.1-.1.1-.1.2-.3.3-.4,0,0,0,0,0,0,.1-.1.2-.3.3-.4,0,0,0,0,.1-.1,0-.1.1-.2.2-.3,0,0,0-.1.1-.2,0,0,.1-.2.2-.3,0,0,0-.1.1-.2,0-.1.1-.2.2-.3,0,0,0,0,0-.1,0-.2.2-.3.3-.5,0,0,0-.1,0-.2,0-.1.1-.2.2-.3,0,0,0-.1.1-.2,0,0,.1-.2.2-.3,0,0,0-.1.1-.2,0,0,0,0,0,0,0,0,0-.1.1-.2,0,0,0-.1.1-.2,0-.1.1-.2.2-.3,0,0,0-.1,0-.2,0-.2.2-.3.2-.5,0,0,0-.1.1-.2,0,0,0-.2.1-.3,0,0,0-.2.1-.2,0,0,0-.2.1-.3,0,0,0-.2.1-.3,0,0,0-.2.1-.3,0,0,0-.2.1-.3,0,0,0-.2.1-.3,0,0,0-.2.1-.3,0,0,0-.2.1-.3,0,0,0-.2.1-.3,0-.1,0-.2.1-.3,0-.1.1-.3.2-.4,0,0,0-.2,0-.3,0,0,0-.2.1-.3,0,0,0-.2,0-.3,0,0,0-.2,0-.3,0,0,0-.2,0-.2,0,0,0-.2,0-.3,0,0,0-.2,0-.2,0-.1,0-.2,0-.3,0,0,0-.2,0-.2,0-.1,0-.2,0-.3,0,0,0-.1,0-.2,0-.2.1-.5.2-.7,0,0,0,0,0-.1,0-.1,0-.2,0-.3,0,0,0-.1,0-.2,0-.1,0-.2,0-.3,0,0,0-.2,0-.2,0-.1,0-.2,0-.3,0,0,0-.2,0-.2,0-.1,0-.2,0-.3,0,0,0-.1,0-.2,0-.1,0-.2,0-.3,0,0,0-.1,0-.2,0-.4.1-.9.2-1.3,0,0,0-.1,0-.2,0-.1,0-.2,0-.4,0,0,0-.1,0-.2,0-.1,0-.2,0-.4,0,0,0-.1,0-.2,0-.1,0-.2,0-.4,0,0,0-.1,0-.2,0-.1,0-.2,0-.4,0,0,0-.1,0-.2,0-.1,0-.3,0-.4,0,0,0,0,0-.1,0-.6,0-1.1,0-1.7,0-19.8-16.1-35.9-35.9-35.9s-34.6,14.8-35.8,33.5h0v25.2c0,13.1-11.6,23.7-26,23.7s-26-10.6-26-23.7h-16.5c0,21.4,19.1,38.8,42.6,38.8s38.3-13.7,41.9-31.9c.4-2.3.7-4.6.7-7v-21.8h0c0-.3,0-.7,0-1,0-10.7,8.6-19.3,19.3-19.3s19.3,8.6,19.3,19.3,0,.3,0,.5c0,.3,0,.6,0,.9,0,0,0,0,0,0,0,.3,0,.6,0,.9,0,0,0,0,0,0,0,.1,0,.3,0,.4,0,0,0,0,0,0,0,.1,0,.3,0,.4,0,0,0,0,0,0,0,.1,0,.3,0,.4,0,0,0,0,0,0,0,.1,0,.2,0,.4,0,0,0,0,0,.1,0,.1,0,.3,0,.4,0,0,0,0,0,.1,0,0,0,.2,0,.3,0,0,0,0,0,.1,0,.1,0,.2-.1.4,0,0,0,0,0,.1,0,0,0,.2,0,.2,0,0,0,.1,0,.2,0,.1,0,.2-.1.3,0,0,0,.1,0,.2,0,0,0,.1,0,.2,0,0,0,.1,0,.2,0,0,0,.2-.1.3,0,0,0,.1,0,.2,0,0,0,.1,0,.2,0,.1-.1.2-.2.4,0,0,0,0,0,.1,0,0,0,.1-.1.2,0,0,0,0,0,.1,0,.1-.1.3-.2.4,0,0,0,0,0,0,0,0,0,.2-.1.2,0,0,0,0,0,0,0,0,0,.1-.1.2h0c-3.3,5.9-9.6,9.8-16.8,9.8s-3.9-.3-5.6-.8c-2.6,4.8-4.2,10.2-4.4,15.9,0,.5,0,.9,0,1.4,0,19.9,16.1,36,36,36s6.8-.5,10-1.4v-18.3c-2.9,1.8-6.3,2.8-10,2.8-10.5,0-19.1-8.5-19.1-19.1Z"/>
    <g>
      <path class="st1" d="M61,93.9c0-19.5,10.7-35.5,24.1-36.6v-17.3c-22.9,1-41.1,24.7-41.1,53.9s19.1,53.9,42.6,53.9,3.6-.1,5.4-.4v-17.6c-1.7.5-3.6.8-5.4.8-14.1,0-25.6-16.4-25.6-36.7Z"/>
      <path class="st1" d="M120,58c-17.2,0-34,0-50.8,0-16.8,0-33.6,0-50.8,0v-18c17.2,0,34,0,50.8,0,16.8,0,33.6,0,50.8,0v18Z"/>
    </g>
    <path class="st1" d="M314.8,95.1c-.2-7.8-3-14.8-7.4-19.8-2.2-2.6-4.9-4.7-8-6l7-3.7c-9.8-15.3-27.3-25.4-47.3-25.4-30.8,0-55.7,24.1-55.7,53.8s24.9,53.8,55.7,53.8,48.3-17.6,54.2-41.3c.7-2.4,1.2-5,1.4-7.6,0-1.3.1-2.6,0-3.8ZM284.9,89.8s0,0,0,0c1.1-2,3.3-3.4,5.8-3.4s5.9,2.3,6.5,5.3c0,.8,0,1.5,0,2.3,0,6.8-2.1,13.1-5.8,18.4-5-3.1-8.3-8.7-8.3-15s.6-5.3,1.7-7.6ZM220.9,94c0-19.1,17.1-34.6,38.2-34.6s19.3,3.7,26.1,9.4c-9.3,3.1-16.9,13-18.4,25.3-1.6,12.7,3.6,24.3,12.2,29.5-5.8,3.2-12.6,5.1-19.9,5.1-21.1,0-38.2-15.5-38.2-34.6Z"/>
    <path class="st1" d="M203.8,95.1c-.2-7.8-3-14.8-7.4-19.8-2.2-2.6-4.9-4.7-8-6l7-3.7c-9.8-15.3-27.3-25.4-47.3-25.4-30.8,0-55.7,24.1-55.7,53.8s24.9,53.8,55.7,53.8,48.3-17.6,54.2-41.3c.7-2.4,1.2-5,1.4-7.6,0-1.3.1-2.6,0-3.8ZM173.9,89.8s0,0,0,0c1.1-2,3.3-3.4,5.8-3.4s5.9,2.3,6.5,5.3c0,.8,0,1.5,0,2.3,0,6.8-2.1,13.1-5.8,18.4-5-3.1-8.3-8.7-8.3-15s.6-5.3,1.7-7.6ZM109.8,94c0-19.1,17.1-34.6,38.2-34.6s19.3,3.7,26.1,9.4c-9.3,3.1-16.9,13-18.4,25.3-1.6,12.7,3.6,24.3,12.2,29.5-5.8,3.2-12.6,5.1-19.9,5.1-21.1,0-38.2-15.5-38.2-34.6Z"/>
    <path class="st1" d="M190.1,21.9c-1.2-4-2.7-7.4-4.1-10.2-1.1-2.1-2.6-3.9-4.5-5.2-1-.7-2.1-1.3-3.5-1.7-.7-.2-2.1-.6-3.9-.6-7.3,0-13.2,5.9-13.2,13.2s2.2,8.4,5.7,10.8c0,0,0,0,0,0,2.7,2,6,4.1,10,6,6.1,2.9,11.8,4.4,16.2,5.1,0-4.5-.6-10.6-2.6-17.5Z"/>
    <path class="st1" d="M216.3,22c1.2-4,2.7-7.4,4.1-10.2,1.1-2.1,2.6-3.9,4.5-5.2,1-.7,2.1-1.3,3.5-1.7.7-.2,2.1-.6,3.9-.6,7.3,0,13.2,5.9,13.2,13.2,0,4.5-2.2,8.4-5.7,10.8,0,0,0,0,0,0-2.7,2-6,4.1-10,6-6.1,2.9-11.8,4.4-16.1,5.1,0-4.5.6-10.6,2.6-17.4Z"/>
    <g>
      <path class="st1" d="M26.1,185.4v11.9h-8v-31.6h8v11.9h7.9v-11.9h8v31.6h-8v-11.9h-7.9Z"/>
      <path class="st1" d="M48.3,173.2c1.5-2.5,3.5-4.5,6-6,2.5-1.5,5.3-2.2,8.3-2.2s5.7.7,8.3,2.2,4.5,3.5,6,6c1.5,2.5,2.2,5.3,2.2,8.3s-.7,5.7-2.2,8.3c-1.5,2.5-3.5,4.5-6,6-2.5,1.5-5.3,2.2-8.3,2.2s-5.7-.7-8.3-2.2c-2.5-1.5-4.5-3.5-6-6-1.5-2.5-2.2-5.3-2.2-8.3s.7-5.7,2.2-8.3ZM55.4,185.7c.8,1.3,1.8,2.3,3.1,3.1,1.3.8,2.7,1.1,4.2,1.1s2.9-.4,4.2-1.1c1.3-.8,2.3-1.8,3.1-3.1.8-1.3,1.1-2.7,1.1-4.2s-.4-2.9-1.1-4.2c-.8-1.3-1.8-2.3-3.1-3.1-1.3-.8-2.7-1.1-4.2-1.1s-2.9.4-4.2,1.1c-1.3.8-2.3,1.8-3.1,3.1-.8,1.3-1.1,2.7-1.1,4.2s.4,2.9,1.1,4.2Z"/>
      <path class="st1" d="M102.4,165.7v7.8h-7.1v23.9h-8v-23.9h-7.1v-7.8h22.1Z"/>
      <path class="st1" d="M114.3,165.7c1.8,0,3.6.4,5.4,1.3,1.9.9,3.4,2.2,4.7,4,1.2,1.8,1.9,4,1.9,6.6s-.6,4.8-1.9,6.6c-1.3,1.8-2.8,3.1-4.7,4-1.9.9-3.7,1.3-5.4,1.3h-.3v7.8h-8v-31.6h8.2ZM117.3,174.8c-.6-.6-1.3-1-2.1-1.2-.8-.2-1.2-.2-1.2-.2v8.3c0,0,.4,0,1.2-.2.8-.2,1.5-.6,2.1-1.2.6-.6.9-1.5.9-2.8s-.3-2.2-.9-2.8Z"/>
      <path class="st1" d="M131.8,173.2c1.5-2.5,3.5-4.5,6-6,2.5-1.5,5.3-2.2,8.3-2.2s5.7.7,8.3,2.2,4.5,3.5,6,6c1.5,2.5,2.2,5.3,2.2,8.3s-.7,5.7-2.2,8.3c-1.5,2.5-3.5,4.5-6,6-2.5,1.5-5.3,2.2-8.3,2.2s-5.7-.7-8.3-2.2c-2.5-1.5-4.5-3.5-6-6-1.5-2.5-2.2-5.3-2.2-8.3s.7-5.7,2.2-8.3ZM138.8,185.7c.8,1.3,1.8,2.3,3.1,3.1,1.3.8,2.7,1.1,4.2,1.1s2.9-.4,4.2-1.1c1.3-.8,2.3-1.8,3.1-3.1.8-1.3,1.1-2.7,1.1-4.2s-.4-2.9-1.1-4.2c-.8-1.3-1.8-2.3-3.1-3.1-1.3-.8-2.7-1.1-4.2-1.1s-2.9.4-4.2,1.1c-1.3.8-2.3,1.8-3.1,3.1-.8,1.3-1.1,2.7-1.1,4.2s.4,2.9,1.1,4.2Z"/>
      <path class="st1" d="M185.8,165.7v7.8h-7.1v23.9h-8v-23.9h-7.1v-7.8h22.1Z"/>
      <path class="st1" d="M219.4,165.7v7.8h-7.1v23.9h-8v-23.9h-7.1v-7.8h22.1Z"/>
      <path class="st1" d="M222.8,173.2c1.5-2.5,3.5-4.5,6-6s5.3-2.2,8.3-2.2,5.7.7,8.3,2.2c2.5,1.5,4.5,3.5,6,6,1.5,2.5,2.2,5.3,2.2,8.3s-.7,5.7-2.2,8.3c-1.5,2.5-3.5,4.5-6,6-2.5,1.5-5.3,2.2-8.3,2.2s-5.7-.7-8.3-2.2c-2.5-1.5-4.5-3.5-6-6-1.5-2.5-2.2-5.3-2.2-8.3s.7-5.7,2.2-8.3ZM229.8,185.7c.8,1.3,1.8,2.3,3.1,3.1,1.3.8,2.7,1.1,4.2,1.1s2.9-.4,4.2-1.1c1.3-.8,2.3-1.8,3.1-3.1.8-1.3,1.1-2.7,1.1-4.2s-.4-2.9-1.1-4.2c-.8-1.3-1.8-2.3-3.1-3.1-1.3-.8-2.7-1.1-4.2-1.1s-2.9.4-4.2,1.1c-1.3.8-2.3,1.8-3.1,3.1-.8,1.3-1.1,2.7-1.1,4.2s.4,2.9,1.1,4.2Z"/>
      <path class="st1" d="M265.2,195.2c-2.5-1.3-4.5-3.2-5.9-5.5-1.5-2.4-2.2-5.1-2.2-8.2s.7-5.8,2.2-8.2c1.5-2.4,3.5-4.3,6-5.6,2.5-1.3,5.3-2,8.5-2h3.3v7.8h-3.7c-1.1,0-2.2.2-3.5.7s-2.4,1.3-3.3,2.5c-.9,1.2-1.4,2.8-1.4,4.9s.5,3.6,1.4,4.8c.9,1.2,2,2,3.1,2.5,1.1.5,2.1.7,2.8.7h.8v-8h7.8v15.8h-7.8c-2.9,0-5.5-.8-8-2.1Z"/>
      <path class="st1" d="M305.2,165.7v7.8h-11.7v4.2h8v7.8h-8v4.2h11.9v7.8h-19.8v-31.6h19.7Z"/>
      <path class="st1" d="M330.4,165.7v7.8h-7.1v23.9h-8v-23.9h-7.1v-7.8h22.1Z"/>
      <path class="st1" d="M342.1,185.4v11.9h-8v-31.6h8v11.9h7.9v-11.9h8v31.6h-8v-11.9h-7.9Z"/>
      <path class="st1" d="M382.4,165.7v7.8h-11.7v4.2h8v7.8h-8v4.2h11.9v7.8h-19.8v-31.6h19.7Z"/>
      <path class="st1" d="M395,165.7c1.8,0,3.6.4,5.4,1.3,1.9.9,3.4,2.2,4.7,4,1.2,1.8,1.9,4,1.9,6.6s-1.1,6.3-3.4,8.5c1.3,1.2,2.1,2.4,2.5,3.7.4,1.3.5,2.8.5,4.6v2.9h-7.8v-2.7c0-2-.4-3.4-1.2-4-.8-.7-1.8-1-2.9-1v7.8h-8v-31.6h8.2ZM398,174.8c-.6-.6-1.3-1-2.1-1.2-.8-.2-1.2-.2-1.2-.2v8.3c0,0,.4,0,1.2-.2.8-.2,1.5-.6,2.1-1.2s.9-1.5.9-2.8-.3-2.2-.9-2.8Z"/>
    </g>
  </g>
  <line class="st0" x1="254.8" y1="-131.4" x2="254.8" y2="-129.8"/>
</svg>